HIERARCHY
ROOT Hips
{
 OFFSET 0.000000 0.000000 0.000000
 CHANNELS 6 Xposition Yposition Zposition Yrotation Xrotation Zrotation
 JOINT Chest
 {
  OFFSET 0.000000 9.585900 0.002600
  CHANNELS 3 Yrotation Xrotation Zrotation
  JOINT Chest2
  {
   OFFSET 0.000000 9.601200 -0.005300
   CHANNELS 3 Yrotation Xrotation Zrotation
   JOINT Chest3
   {
    OFFSET 0.000000 9.561800 0.000000
    CHANNELS 3 Yrotation Xrotation Zrotation
    JOINT Chest4
    {
     OFFSET 0.000000 9.552100 0.000000
     CHANNELS 3 Yrotation Xrotation Zrotation
     JOINT Neck
     {
      OFFSET 0.000000 14.453000 0.000000
      CHANNELS 3 Yrotation Xrotation Zrotation
      JOINT Head
      {
       OFFSET 0.000000 8.936500 -0.011300
       CHANNELS 3 Yrotation Xrotation Zrotation
       End Site
       {
        OFFSET 0.000000 17.073600 -0.006000
       }
      }
     }
     JOINT RightCollar
     {
      OFFSET -2.921100 9.558500 0.000000
      CHANNELS 3 Yrotation Xrotation Zrotation
      JOINT RightShoulder
      {
       OFFSET -13.519700 0.000000 0.000000
       CHANNELS 3 Yrotation Xrotation Zrotation
       JOINT RightElbow
       {
        OFFSET 0.000000 -29.696600 0.000000
        CHANNELS 3 Yrotation Xrotation Zrotation
        JOINT RightWrist
        {
         OFFSET 0.000000 -24.004700 0.000000
         CHANNELS 3 Yrotation Xrotation Zrotation
         End Site
         {
          OFFSET 0.000000 -17.728500 0.000000
         }
        }
       }
      }
     }
     JOINT LeftCollar
     {
      OFFSET 2.921100 9.558500 0.000000
      CHANNELS 3 Yrotation Xrotation Zrotation
      JOINT LeftShoulder
      {
       OFFSET 13.519700 0.000000 0.000000
       CHANNELS 3 Yrotation Xrotation Zrotation
       JOINT LeftElbow
       {
        OFFSET 0.000000 -29.696600 0.000000
        CHANNELS 3 Yrotation Xrotation Zrotation
        JOINT LeftWrist
        {
         OFFSET 0.000000 -24.004700 0.000000
         CHANNELS 3 Yrotation Xrotation Zrotation
         End Site
         {
          OFFSET 0.000000 -17.728500 0.000000
         }
        }
       }
      }
     }
    }
   }
  }
 }
 JOINT RightHip
 {
  OFFSET -7.771700 -0.012900 -0.001300
  CHANNELS 3 Yrotation Xrotation Zrotation
  JOINT RightKnee
  {
   OFFSET 0.000000 -40.869800 0.001200
   CHANNELS 3 Yrotation Xrotation Zrotation
   JOINT RightAnkle
   {
    OFFSET 0.000000 -39.717900 0.002100
    CHANNELS 3 Yrotation Xrotation Zrotation
    JOINT RightToe
    {
     OFFSET 0.000000 -4.965400 11.033500
     CHANNELS 3 Yrotation Xrotation Zrotation
     End Site
     {
      OFFSET 0.000000 -1.423100 5.872300
     }
    }
   }
  }
 }
 JOINT LeftHip
 {
  OFFSET 7.771700 -0.012900 -0.001300
  CHANNELS 3 Yrotation Xrotation Zrotation
  JOINT LeftKnee
  {
   OFFSET 0.000000 -40.869800 0.001200
   CHANNELS 3 Yrotation Xrotation Zrotation
   JOINT LeftAnkle
   {
    OFFSET 0.000000 -39.717900 0.002100
    CHANNELS 3 Yrotation Xrotation Zrotation
    JOINT LeftToe
    {
     OFFSET 0.000000 -4.965400 11.033500
     CHANNELS 3 Yrotation Xrotation Zrotation
     End Site
     {
      OFFSET 0.000000 -1.423100 5.872300
     }
    }
   }
  }
 }
}
MOTION
Frames: 11
Frame Time: 0.008333
0.000000 85.388000 0.000000 0.000000 -5.767877 0.000000 0.000000 11.653817 0.000000 0.000000 -5.885947 0.000000 0.000000 -0.000000 0.000000 0.000000 -0.000000 0.000000 0.000000 12.528835 0.000000 0.000000 0.711642 0.000000 0.000000 -0.000000 0.000000 0.000000 0.000000 -90.000000 0.000000 -2.309062 0.000000 0.000000 2.309062 0.000000 0.000000 -0.000000 0.000000 0.000000 -0.000000 90.000000 0.000000 -2.309062 0.000000 0.000000 2.309062 0.000000 0.000000 8.520406 0.000000 0.000000 1.905762 0.000000 -0.000000 -4.658285 0.000000 0.000000 -0.000000 0.000000 0.000000 8.520406 0.000000 0.000000 1.905762 0.000000 -0.000000 -4.658285 0.000000 0.000000 -0.000000 0.000000
2.283317 50.245302 41.808836 169.835596 -31.947755 -3.909873 6.321759 20.712610 10.727161 0.694931 3.104372 1.267483 1.157179 5.003378 2.067094 5.062663 17.546752 8.005146 -0.806061 18.857999 -2.184884 -0.786027 -0.770197 -3.747712 -0.483847 -1.771203 -4.899360 6.860154 -6.320679 -2.600060 102.540614 -63.109007 -119.895016 5.836456 -5.475940 15.127605 -14.687036 -5.994279 -0.655159 -15.214629 -24.331238 15.493216 -114.696528 -51.761300 120.380672 22.691840 -30.634422 -9.116191 3.190659 -49.650036 8.986920 -84.355016 81.179341 -72.605511 -0.045536 -8.151823 -4.121278 -0.384190 1.054322 -0.219113 -7.884219 -52.598427 15.815846 -142.239886 83.642150 -149.725239 1.257376 -13.165101 7.116356 -0.206134 -0.717918 -0.049856
2.279951 50.243681 41.813847 169.895882 -31.865321 -3.904009 6.325705 20.577407 10.596020 0.692838 3.062024 1.243095 1.153579 4.939109 2.028965 5.069905 17.455606 7.922824 -0.942290 18.747000 -2.085758 -1.064610 -0.980426 -3.523555 -0.542817 -1.766179 -4.888615 6.805902 -6.027891 -2.437745 102.272554 -63.183549 -119.533173 5.847916 -5.553116 15.072715 -14.455288 -5.964805 -0.729881 -14.984792 -23.756816 15.365581 -114.354312 -51.973379 120.077181 22.600163 -30.521949 -9.242714 3.068466 -49.711761 8.951017 -84.334103 81.231335 -72.611234 -0.005950 -8.158381 -4.158371 -0.409119 1.037682 -0.227371 -7.926458 -52.680652 15.780511 -142.193065 83.671870 -149.680312 1.243820 -13.124713 7.094737 -0.194259 -0.723288 -0.044944
2.281416 50.246382 41.813972 169.934368 -31.817503 -3.905694 6.354885 20.474416 10.490132 0.691319 3.019790 1.218916 1.150914 4.874906 1.991190 5.080777 17.362869 7.840753 -1.090048 18.620229 -1.991824 -1.362919 -1.219416 -3.304634 -0.587239 -1.755856 -4.874206 6.737891 -5.718421 -2.278502 102.072673 -63.298797 -119.234923 5.826159 -5.627586 15.022967 -14.201519 -5.931253 -0.809627 -14.751098 -23.181359 15.222951 -114.011981 -52.199350 119.755602 22.512657 -30.393306 -9.381451 3.005682 -49.745304 8.925871 -84.330942 81.268595 -72.599719 -0.027956 -8.173318 -4.188275 -0.405462 1.017031 -0.225211 -7.971062 -52.721661 15.773381 -142.175333 83.686175 -149.671894 1.251781 -13.104693 7.083132 -0.192871 -0.729409 -0.050172
2.281689 50.244778 41.821528 170.020324 -31.707554 -3.929189 6.329944 20.311419 10.372411 0.690569 2.977936 1.194914 1.149625 4.811204 1.953666 5.096640 17.269133 7.758519 -1.245546 18.478079 -1.904748 -1.673586 -1.486375 -3.095107 -0.617613 -1.733992 -4.860564 6.652735 -5.401072 -2.114408 101.905104 -63.436421 -118.962787 5.772549 -5.708407 14.966212 -13.932351 -5.892181 -0.888666 -14.496153 -22.605529 15.060314 -113.705989 -52.476253 119.433321 22.440491 -30.234630 -9.549078 2.918794 -49.840594 8.885164 -84.341831 81.297049 -72.595706 -0.041064 -8.192110 -4.227226 -0.378520 1.006536 -0.212372 -8.075776 -52.825946 15.777200 -142.153090 83.710016 -149.663029 1.261647 -13.097959 7.076180 -0.202940 -0.709619 -0.060111
2.284873 50.245572 41.826016 170.087653 -31.618961 -3.953060 6.322219 20.163806 10.268040 0.690175 2.936418 1.171160 1.148988 4.747941 1.916398 5.115039 17.174762 7.676005 -1.404457 18.322653 -1.826996 -1.988145 -1.777253 -2.900841 -0.636281 -1.700071 -4.853000 6.553604 -5.077170 -1.941905 101.737093 -63.580074 -118.691642 5.686821 -5.801047 14.887833 -13.654391 -5.844698 -0.966905 -14.214817 -22.029190 14.885872 -113.450421 -52.833244 119.122767 22.382560 -30.042472 -9.756596 2.861311 -49.920159 8.855995 -84.387780 81.312724 -72.610053 -0.079462 -8.206209 -4.274203 -0.320777 0.981346 -0.178388 -8.169626 -52.906984 15.791621 -142.143009 83.733280 -149.659175 1.267149 -13.082884 7.062721 -0.214405 -0.698021 -0.071656
2.286024 50.246476 41.829061 170.134633 -31.534206 -3.948976 6.325455 20.015931 10.148015 0.690131 2.895080 1.147680 1.148852 4.684810 1.879469 5.135763 17.079233 7.593568 -1.563817 18.157196 -1.758235 -2.301340 -2.085969 -2.722102 -0.648050 -1.659493 -4.851605 6.441913 -4.744892 -1.760017 101.551766 -63.723368 -118.406695 5.574500 -5.902584 14.773827 -13.374728 -5.787481 -1.043334 -13.910628 -21.451373 14.706521 -113.238918 -53.276163 118.821919 22.330554 -29.819879 -10.012348 2.796702 -49.990373 8.812265 -84.394733 81.348254 -72.605348 -0.084227 -8.220286 -4.322906 -0.300425 0.971503 -0.166216 -8.251504 -52.981421 15.769407 -142.228087 83.766390 -149.744762 1.298218 -13.066537 7.026739 -0.226384 -0.697273 -0.078847
2.291848 50.249312 41.828900 170.165404 -31.475310 -3.956700 6.357004 19.887690 10.054234 0.690725 2.853886 1.124475 1.149769 4.621837 1.842929 5.160868 16.982058 7.511548 -1.721993 17.984670 -1.694844 -2.611388 -2.407072 -2.552549 -0.661129 -1.620337 -4.855027 6.319385 -4.403488 -1.565145 101.340657 -63.861417 -118.093828 5.456164 -6.014414 14.616282 -13.096649 -5.722028 -1.110941 -13.589784 -20.868349 14.521410 -113.064710 -53.787743 118.536599 22.263997 -29.564557 -10.321046 2.715323 -50.033938 8.809595 -84.386535 81.381429 -72.585299 -0.092492 -8.228233 -4.376715 -0.282722 0.956621 -0.153150 -8.291850 -53.033639 15.766794 -142.214889 83.778929 -149.726609 1.318176 -13.055569 7.015593 -0.232691 -0.698847 -0.087841
2.297187 50.251768 41.827090 170.228317 -31.421223 -3.972361 6.365377 19.766053 9.954074 0.692105 2.812740 1.101221 1.152001 4.558855 1.806342 5.191437 16.883030 7.428442 -1.876807 17.810201 -1.632173 -2.915910 -2.731156 -2.384429 -0.683195 -1.587236 -4.861570 6.190115 -4.052980 -1.353769 101.100883 -63.981774 -117.749556 5.351941 -6.135604 14.421852 -12.825305 -5.649721 -1.165466 -13.260809 -20.276263 14.331011 -112.892112 -54.320871 118.252585 22.164049 -29.275152 -10.665715 2.613786 -50.069017 8.786261 -84.498715 81.408876 -72.651964 -0.140835 -8.252251 -4.477422 -0.199464 0.939500 -0.118146 -8.345094 -53.083055 15.746417 -142.191514 83.791811 -149.697182 1.337837 -13.043470 7.007440 -0.241971 -0.699190 -0.097909
2.298462 50.250400 41.827764 170.286334 -31.340461 -3.959603 6.374263 19.618922 9.827235 0.694204 2.771598 1.077690 1.155329 4.495752 1.769401 5.226739 16.782345 7.343081 -2.026816 17.640453 -1.566231 -3.213512 -3.045853 -2.211034 -0.718249 -1.563581 -4.870133 6.065654 -3.690425 -1.122249 100.824342 -64.068641 -117.377930 5.277625 -6.257847 14.198512 -12.562795 -5.569102 -1.209107 -12.929686 -19.681912 14.136329 -112.652605 -54.807340 117.922545 22.036350 -28.978120 -11.024043 2.545361 -50.134911 8.722589 -84.594226 81.441519 -72.727480 -0.149446 -8.278972 -4.542407 -0.166159 0.936062 -0.100948 -8.380009 -53.163053 15.669458 -142.353472 83.823633 -149.841806 1.377714 -13.033702 6.984525 -0.262789 -0.693612 -0.114666
2.302114 50.247988 41.827793 170.325273 -31.264512 -3.946203 6.409148 19.474767 9.713752 0.696644 2.730925 1.054229 1.159251 4.433310 1.732485 5.264650 16.681478 7.256431 -2.171254 17.480444 -1.495333 -3.503263 -3.341780 -2.029465 -0.761590 -1.554249 -4.884690 5.953085 -3.316585 -0.869237 100.500139 -64.115359 -116.973424 5.236884 -6.377140 13.950035 -12.304906 -5.483842 -1.244886 -12.592661 -19.092645 13.934177 -112.298540 -55.190146 117.518625 21.886321 -28.706117 -11.377987 2.483666 -50.198256 8.676734 -84.655862 81.469181 -72.781822 -0.131572 -8.299499 -4.582472 -0.171493 0.936842 -0.099423 -8.397352 -53.239606 15.606774 -142.495509 83.847868 -149.961180 1.402469 -13.026099 6.965241 -0.272467 -0.688196 -0.127428
